<mxfile host="app.diagrams.net" modified="2024-05-17T23:07:17.005Z" agent="Mozilla/5.0 (Windows NT 10.0; Win64; x64) AppleWebKit/537.36 (KHTML, like Gecko) Chrome/124.0.0.0 Safari/537.36" etag="SpkMDKzS9rAsyTIfgq1Q" version="24.4.0" type="device">
  <diagram name="PÃ¡gina-1" id="yHx0_dX3Qvw6tXTJ0imV">
    <mxGraphModel dx="2547" dy="883" grid="1" gridSize="10" guides="1" tooltips="1" connect="1" arrows="1" fold="1" page="1" pageScale="1" pageWidth="827" pageHeight="1169" math="0" shadow="0">
      <root>
        <mxCell id="0" />
        <mxCell id="1" parent="0" />
        <mxCell id="yFnnKSfxupEGuGG4y7b8-5" value="modelo" style="shape=folder;fontStyle=1;tabWidth=110;tabHeight=30;tabPosition=left;html=1;boundedLbl=1;labelInHeader=1;container=1;collapsible=0;recursiveResize=0;whiteSpace=wrap;" parent="1" vertex="1">
          <mxGeometry x="-800" y="17" width="1150" height="473" as="geometry" />
        </mxCell>
        <mxCell id="yFnnKSfxupEGuGG4y7b8-14" value="Computador" style="swimlane;fontStyle=1;align=center;verticalAlign=top;childLayout=stackLayout;horizontal=1;startSize=26;horizontalStack=0;resizeParent=1;resizeParentMax=0;resizeLast=0;collapsible=1;marginBottom=0;whiteSpace=wrap;html=1;" parent="yFnnKSfxupEGuGG4y7b8-5" vertex="1">
          <mxGeometry x="50" y="60" width="300" height="372" as="geometry" />
        </mxCell>
        <mxCell id="yFnnKSfxupEGuGG4y7b8-15" value="- idComputador: int" style="text;strokeColor=none;fillColor=none;align=left;verticalAlign=top;spacingLeft=4;spacingRight=4;overflow=hidden;rotatable=0;points=[[0,0.5],[1,0.5]];portConstraint=eastwest;whiteSpace=wrap;html=1;" parent="yFnnKSfxupEGuGG4y7b8-14" vertex="1">
          <mxGeometry y="26" width="300" height="26" as="geometry" />
        </mxCell>
        <mxCell id="yFnnKSfxupEGuGG4y7b8-53" value="- nome: String" style="text;strokeColor=none;fillColor=none;align=left;verticalAlign=top;spacingLeft=4;spacingRight=4;overflow=hidden;rotatable=0;points=[[0,0.5],[1,0.5]];portConstraint=eastwest;whiteSpace=wrap;html=1;" parent="yFnnKSfxupEGuGG4y7b8-14" vertex="1">
          <mxGeometry y="52" width="300" height="26" as="geometry" />
        </mxCell>
        <mxCell id="yFnnKSfxupEGuGG4y7b8-62" value="- modeloProcessador: String" style="text;strokeColor=none;fillColor=none;align=left;verticalAlign=top;spacingLeft=4;spacingRight=4;overflow=hidden;rotatable=0;points=[[0,0.5],[1,0.5]];portConstraint=eastwest;whiteSpace=wrap;html=1;" parent="yFnnKSfxupEGuGG4y7b8-14" vertex="1">
          <mxGeometry y="78" width="300" height="26" as="geometry" />
        </mxCell>
        <mxCell id="yFnnKSfxupEGuGG4y7b8-63" value="- codPatrimonio: String" style="text;strokeColor=none;fillColor=none;align=left;verticalAlign=top;spacingLeft=4;spacingRight=4;overflow=hidden;rotatable=0;points=[[0,0.5],[1,0.5]];portConstraint=eastwest;whiteSpace=wrap;html=1;" parent="yFnnKSfxupEGuGG4y7b8-14" vertex="1">
          <mxGeometry y="104" width="300" height="26" as="geometry" />
        </mxCell>
        <mxCell id="yFnnKSfxupEGuGG4y7b8-52" value="- maxRam: int" style="text;strokeColor=none;fillColor=none;align=left;verticalAlign=top;spacingLeft=4;spacingRight=4;overflow=hidden;rotatable=0;points=[[0,0.5],[1,0.5]];portConstraint=eastwest;whiteSpace=wrap;html=1;" parent="yFnnKSfxupEGuGG4y7b8-14" vertex="1">
          <mxGeometry y="130" width="300" height="26" as="geometry" />
        </mxCell>
        <mxCell id="yFnnKSfxupEGuGG4y7b8-51" value="- maxDisco: int" style="text;strokeColor=none;fillColor=none;align=left;verticalAlign=top;spacingLeft=4;spacingRight=4;overflow=hidden;rotatable=0;points=[[0,0.5],[1,0.5]];portConstraint=eastwest;whiteSpace=wrap;html=1;" parent="yFnnKSfxupEGuGG4y7b8-14" vertex="1">
          <mxGeometry y="156" width="300" height="26" as="geometry" />
        </mxCell>
        <mxCell id="yFnnKSfxupEGuGG4y7b8-65" value="- fkDepartamento: int" style="text;strokeColor=none;fillColor=none;align=left;verticalAlign=top;spacingLeft=4;spacingRight=4;overflow=hidden;rotatable=0;points=[[0,0.5],[1,0.5]];portConstraint=eastwest;whiteSpace=wrap;html=1;" parent="yFnnKSfxupEGuGG4y7b8-14" vertex="1">
          <mxGeometry y="182" width="300" height="26" as="geometry" />
        </mxCell>
        <mxCell id="yFnnKSfxupEGuGG4y7b8-50" value="- fkHospital: int" style="text;strokeColor=none;fillColor=none;align=left;verticalAlign=top;spacingLeft=4;spacingRight=4;overflow=hidden;rotatable=0;points=[[0,0.5],[1,0.5]];portConstraint=eastwest;whiteSpace=wrap;html=1;" parent="yFnnKSfxupEGuGG4y7b8-14" vertex="1">
          <mxGeometry y="208" width="300" height="26" as="geometry" />
        </mxCell>
        <mxCell id="yFnnKSfxupEGuGG4y7b8-64" value="- departamento: Departamento" style="text;strokeColor=none;fillColor=none;align=left;verticalAlign=top;spacingLeft=4;spacingRight=4;overflow=hidden;rotatable=0;points=[[0,0.5],[1,0.5]];portConstraint=eastwest;whiteSpace=wrap;html=1;" parent="yFnnKSfxupEGuGG4y7b8-14" vertex="1">
          <mxGeometry y="234" width="300" height="26" as="geometry" />
        </mxCell>
        <mxCell id="yFnnKSfxupEGuGG4y7b8-16" value="" style="line;strokeWidth=1;fillColor=none;align=left;verticalAlign=middle;spacingTop=-1;spacingLeft=3;spacingRight=3;rotatable=0;labelPosition=right;points=[];portConstraint=eastwest;strokeColor=inherit;" parent="yFnnKSfxupEGuGG4y7b8-14" vertex="1">
          <mxGeometry y="260" width="300" height="8" as="geometry" />
        </mxCell>
        <mxCell id="yFnnKSfxupEGuGG4y7b8-69" value="+ getPorcentagemDeTodosVolumes(): List&amp;lt;Long&amp;gt;" style="text;strokeColor=none;fillColor=none;align=left;verticalAlign=top;spacingLeft=4;spacingRight=4;overflow=hidden;rotatable=0;points=[[0,0.5],[1,0.5]];portConstraint=eastwest;whiteSpace=wrap;html=1;" parent="yFnnKSfxupEGuGG4y7b8-14" vertex="1">
          <mxGeometry y="268" width="300" height="26" as="geometry" />
        </mxCell>
        <mxCell id="yFnnKSfxupEGuGG4y7b8-70" value="+ getDiscoComMaisConsumo(List&amp;lt;Long&amp;gt;): Double" style="text;strokeColor=none;fillColor=none;align=left;verticalAlign=top;spacingLeft=4;spacingRight=4;overflow=hidden;rotatable=0;points=[[0,0.5],[1,0.5]];portConstraint=eastwest;whiteSpace=wrap;html=1;" parent="yFnnKSfxupEGuGG4y7b8-14" vertex="1">
          <mxGeometry y="294" width="300" height="26" as="geometry" />
        </mxCell>
        <mxCell id="xv3UmUeA4c30_hks40sB-2" value="+ setDepartamento(Departamento): Void" style="text;strokeColor=none;fillColor=none;align=left;verticalAlign=top;spacingLeft=4;spacingRight=4;overflow=hidden;rotatable=0;points=[[0,0.5],[1,0.5]];portConstraint=eastwest;whiteSpace=wrap;html=1;" vertex="1" parent="yFnnKSfxupEGuGG4y7b8-14">
          <mxGeometry y="320" width="300" height="26" as="geometry" />
        </mxCell>
        <mxCell id="yFnnKSfxupEGuGG4y7b8-88" value="+ toString(): String" style="text;strokeColor=none;fillColor=none;align=left;verticalAlign=top;spacingLeft=4;spacingRight=4;overflow=hidden;rotatable=0;points=[[0,0.5],[1,0.5]];portConstraint=eastwest;whiteSpace=wrap;html=1;" parent="yFnnKSfxupEGuGG4y7b8-14" vertex="1">
          <mxGeometry y="346" width="300" height="26" as="geometry" />
        </mxCell>
        <mxCell id="yFnnKSfxupEGuGG4y7b8-10" value="Departamento" style="swimlane;fontStyle=1;align=center;verticalAlign=top;childLayout=stackLayout;horizontal=1;startSize=26;horizontalStack=0;resizeParent=1;resizeParentMax=0;resizeLast=0;collapsible=1;marginBottom=0;whiteSpace=wrap;html=1;" parent="yFnnKSfxupEGuGG4y7b8-5" vertex="1">
          <mxGeometry x="420" y="151" width="300" height="190" as="geometry" />
        </mxCell>
        <mxCell id="yFnnKSfxupEGuGG4y7b8-11" value="- idDepartamento: int" style="text;strokeColor=none;fillColor=none;align=left;verticalAlign=top;spacingLeft=4;spacingRight=4;overflow=hidden;rotatable=0;points=[[0,0.5],[1,0.5]];portConstraint=eastwest;whiteSpace=wrap;html=1;" parent="yFnnKSfxupEGuGG4y7b8-10" vertex="1">
          <mxGeometry y="26" width="300" height="26" as="geometry" />
        </mxCell>
        <mxCell id="yFnnKSfxupEGuGG4y7b8-97" value="- nome: String" style="text;strokeColor=none;fillColor=none;align=left;verticalAlign=top;spacingLeft=4;spacingRight=4;overflow=hidden;rotatable=0;points=[[0,0.5],[1,0.5]];portConstraint=eastwest;whiteSpace=wrap;html=1;" parent="yFnnKSfxupEGuGG4y7b8-10" vertex="1">
          <mxGeometry y="52" width="300" height="26" as="geometry" />
        </mxCell>
        <mxCell id="yFnnKSfxupEGuGG4y7b8-96" value="- hospital: Hospital" style="text;strokeColor=none;fillColor=none;align=left;verticalAlign=top;spacingLeft=4;spacingRight=4;overflow=hidden;rotatable=0;points=[[0,0.5],[1,0.5]];portConstraint=eastwest;whiteSpace=wrap;html=1;" parent="yFnnKSfxupEGuGG4y7b8-10" vertex="1">
          <mxGeometry y="78" width="300" height="26" as="geometry" />
        </mxCell>
        <mxCell id="yFnnKSfxupEGuGG4y7b8-95" value="- fkHospital: int" style="text;strokeColor=none;fillColor=none;align=left;verticalAlign=top;spacingLeft=4;spacingRight=4;overflow=hidden;rotatable=0;points=[[0,0.5],[1,0.5]];portConstraint=eastwest;whiteSpace=wrap;html=1;" parent="yFnnKSfxupEGuGG4y7b8-10" vertex="1">
          <mxGeometry y="104" width="300" height="26" as="geometry" />
        </mxCell>
        <mxCell id="yFnnKSfxupEGuGG4y7b8-94" value="- computadores: List&amp;lt;Computador&amp;gt;" style="text;strokeColor=none;fillColor=none;align=left;verticalAlign=top;spacingLeft=4;spacingRight=4;overflow=hidden;rotatable=0;points=[[0,0.5],[1,0.5]];portConstraint=eastwest;whiteSpace=wrap;html=1;" parent="yFnnKSfxupEGuGG4y7b8-10" vertex="1">
          <mxGeometry y="130" width="300" height="26" as="geometry" />
        </mxCell>
        <mxCell id="yFnnKSfxupEGuGG4y7b8-12" value="" style="line;strokeWidth=1;fillColor=none;align=left;verticalAlign=middle;spacingTop=-1;spacingLeft=3;spacingRight=3;rotatable=0;labelPosition=right;points=[];portConstraint=eastwest;strokeColor=inherit;" parent="yFnnKSfxupEGuGG4y7b8-10" vertex="1">
          <mxGeometry y="156" width="300" height="8" as="geometry" />
        </mxCell>
        <mxCell id="yFnnKSfxupEGuGG4y7b8-13" value="+ addComputador(Computador): Void" style="text;strokeColor=none;fillColor=none;align=left;verticalAlign=top;spacingLeft=4;spacingRight=4;overflow=hidden;rotatable=0;points=[[0,0.5],[1,0.5]];portConstraint=eastwest;whiteSpace=wrap;html=1;" parent="yFnnKSfxupEGuGG4y7b8-10" vertex="1">
          <mxGeometry y="164" width="300" height="26" as="geometry" />
        </mxCell>
        <mxCell id="yFnnKSfxupEGuGG4y7b8-18" value="Hospital" style="swimlane;fontStyle=1;align=center;verticalAlign=top;childLayout=stackLayout;horizontal=1;startSize=26;horizontalStack=0;resizeParent=1;resizeParentMax=0;resizeLast=0;collapsible=1;marginBottom=0;whiteSpace=wrap;html=1;" parent="yFnnKSfxupEGuGG4y7b8-5" vertex="1">
          <mxGeometry x="800" y="151" width="300" height="190" as="geometry" />
        </mxCell>
        <mxCell id="yFnnKSfxupEGuGG4y7b8-19" value="- idHospital: int" style="text;strokeColor=none;fillColor=none;align=left;verticalAlign=top;spacingLeft=4;spacingRight=4;overflow=hidden;rotatable=0;points=[[0,0.5],[1,0.5]];portConstraint=eastwest;whiteSpace=wrap;html=1;" parent="yFnnKSfxupEGuGG4y7b8-18" vertex="1">
          <mxGeometry y="26" width="300" height="26" as="geometry" />
        </mxCell>
        <mxCell id="yFnnKSfxupEGuGG4y7b8-114" value="- nomeFantasia: String" style="text;strokeColor=none;fillColor=none;align=left;verticalAlign=top;spacingLeft=4;spacingRight=4;overflow=hidden;rotatable=0;points=[[0,0.5],[1,0.5]];portConstraint=eastwest;whiteSpace=wrap;html=1;" parent="yFnnKSfxupEGuGG4y7b8-18" vertex="1">
          <mxGeometry y="52" width="300" height="26" as="geometry" />
        </mxCell>
        <mxCell id="yFnnKSfxupEGuGG4y7b8-117" value="- razaoSocial: String" style="text;strokeColor=none;fillColor=none;align=left;verticalAlign=top;spacingLeft=4;spacingRight=4;overflow=hidden;rotatable=0;points=[[0,0.5],[1,0.5]];portConstraint=eastwest;whiteSpace=wrap;html=1;" parent="yFnnKSfxupEGuGG4y7b8-18" vertex="1">
          <mxGeometry y="78" width="300" height="26" as="geometry" />
        </mxCell>
        <mxCell id="yFnnKSfxupEGuGG4y7b8-115" value="- cnpj: String" style="text;strokeColor=none;fillColor=none;align=left;verticalAlign=top;spacingLeft=4;spacingRight=4;overflow=hidden;rotatable=0;points=[[0,0.5],[1,0.5]];portConstraint=eastwest;whiteSpace=wrap;html=1;" parent="yFnnKSfxupEGuGG4y7b8-18" vertex="1">
          <mxGeometry y="104" width="300" height="26" as="geometry" />
        </mxCell>
        <mxCell id="yFnnKSfxupEGuGG4y7b8-116" value="- departamentos: List&amp;lt;Departamento&amp;gt;" style="text;strokeColor=none;fillColor=none;align=left;verticalAlign=top;spacingLeft=4;spacingRight=4;overflow=hidden;rotatable=0;points=[[0,0.5],[1,0.5]];portConstraint=eastwest;whiteSpace=wrap;html=1;" parent="yFnnKSfxupEGuGG4y7b8-18" vertex="1">
          <mxGeometry y="130" width="300" height="26" as="geometry" />
        </mxCell>
        <mxCell id="yFnnKSfxupEGuGG4y7b8-20" value="" style="line;strokeWidth=1;fillColor=none;align=left;verticalAlign=middle;spacingTop=-1;spacingLeft=3;spacingRight=3;rotatable=0;labelPosition=right;points=[];portConstraint=eastwest;strokeColor=inherit;" parent="yFnnKSfxupEGuGG4y7b8-18" vertex="1">
          <mxGeometry y="156" width="300" height="8" as="geometry" />
        </mxCell>
        <mxCell id="yFnnKSfxupEGuGG4y7b8-21" value="+ addDepartamento(Departamento): Void" style="text;strokeColor=none;fillColor=none;align=left;verticalAlign=top;spacingLeft=4;spacingRight=4;overflow=hidden;rotatable=0;points=[[0,0.5],[1,0.5]];portConstraint=eastwest;whiteSpace=wrap;html=1;" parent="yFnnKSfxupEGuGG4y7b8-18" vertex="1">
          <mxGeometry y="164" width="300" height="26" as="geometry" />
        </mxCell>
        <mxCell id="yFnnKSfxupEGuGG4y7b8-137" value="" style="endArrow=diamondThin;endFill=0;endSize=24;html=1;rounded=0;" parent="yFnnKSfxupEGuGG4y7b8-5" source="yFnnKSfxupEGuGG4y7b8-14" target="yFnnKSfxupEGuGG4y7b8-10" edge="1">
          <mxGeometry width="160" relative="1" as="geometry">
            <mxPoint x="350" y="320" as="sourcePoint" />
            <mxPoint x="510" y="320" as="targetPoint" />
          </mxGeometry>
        </mxCell>
        <mxCell id="yFnnKSfxupEGuGG4y7b8-138" value="" style="endArrow=diamondThin;endFill=0;endSize=24;html=1;rounded=0;" parent="yFnnKSfxupEGuGG4y7b8-5" source="yFnnKSfxupEGuGG4y7b8-10" target="yFnnKSfxupEGuGG4y7b8-18" edge="1">
          <mxGeometry width="160" relative="1" as="geometry">
            <mxPoint x="790" y="530" as="sourcePoint" />
            <mxPoint x="900" y="531" as="targetPoint" />
          </mxGeometry>
        </mxCell>
        <mxCell id="xv3UmUeA4c30_hks40sB-64" value="1..*&amp;nbsp; &amp;nbsp; &amp;nbsp; *..1" style="text;html=1;align=center;verticalAlign=middle;whiteSpace=wrap;rounded=0;" vertex="1" parent="yFnnKSfxupEGuGG4y7b8-5">
          <mxGeometry x="357" y="203" width="60" height="30" as="geometry" />
        </mxCell>
        <mxCell id="xv3UmUeA4c30_hks40sB-65" value="1..*&amp;nbsp; &amp;nbsp; &amp;nbsp; *..1" style="text;html=1;align=center;verticalAlign=middle;whiteSpace=wrap;rounded=0;" vertex="1" parent="yFnnKSfxupEGuGG4y7b8-5">
          <mxGeometry x="730" y="203" width="60" height="30" as="geometry" />
        </mxCell>
        <mxCell id="yFnnKSfxupEGuGG4y7b8-7" value="repositorio" style="shape=folder;fontStyle=1;tabWidth=110;tabHeight=30;tabPosition=left;html=1;boundedLbl=1;labelInHeader=1;container=1;collapsible=0;recursiveResize=0;whiteSpace=wrap;" parent="1" vertex="1">
          <mxGeometry x="390" y="17" width="380" height="390" as="geometry" />
        </mxCell>
        <mxCell id="yFnnKSfxupEGuGG4y7b8-38" value="DepartamentoRepositorio" style="swimlane;fontStyle=1;align=center;verticalAlign=top;childLayout=stackLayout;horizontal=1;startSize=26;horizontalStack=0;resizeParent=1;resizeParentMax=0;resizeLast=0;collapsible=1;marginBottom=0;whiteSpace=wrap;html=1;" parent="yFnnKSfxupEGuGG4y7b8-7" vertex="1">
          <mxGeometry x="22.5" y="170" width="335" height="86" as="geometry" />
        </mxCell>
        <mxCell id="yFnnKSfxupEGuGG4y7b8-130" value="- conn: final JdbcTemplate" style="text;strokeColor=none;fillColor=none;align=left;verticalAlign=top;spacingLeft=4;spacingRight=4;overflow=hidden;rotatable=0;points=[[0,0.5],[1,0.5]];portConstraint=eastwest;whiteSpace=wrap;html=1;" parent="yFnnKSfxupEGuGG4y7b8-38" vertex="1">
          <mxGeometry y="26" width="335" height="26" as="geometry" />
        </mxCell>
        <mxCell id="yFnnKSfxupEGuGG4y7b8-40" value="" style="line;strokeWidth=1;fillColor=none;align=left;verticalAlign=middle;spacingTop=-1;spacingLeft=3;spacingRight=3;rotatable=0;labelPosition=right;points=[];portConstraint=eastwest;strokeColor=inherit;" parent="yFnnKSfxupEGuGG4y7b8-38" vertex="1">
          <mxGeometry y="52" width="335" height="8" as="geometry" />
        </mxCell>
        <mxCell id="yFnnKSfxupEGuGG4y7b8-41" value="+ buscarDepartamentoPorId(int): Departamento" style="text;strokeColor=none;fillColor=none;align=left;verticalAlign=top;spacingLeft=4;spacingRight=4;overflow=hidden;rotatable=0;points=[[0,0.5],[1,0.5]];portConstraint=eastwest;whiteSpace=wrap;html=1;" parent="yFnnKSfxupEGuGG4y7b8-38" vertex="1">
          <mxGeometry y="60" width="335" height="26" as="geometry" />
        </mxCell>
        <mxCell id="yFnnKSfxupEGuGG4y7b8-42" value="HospitalRepositorio" style="swimlane;fontStyle=1;align=center;verticalAlign=top;childLayout=stackLayout;horizontal=1;startSize=26;horizontalStack=0;resizeParent=1;resizeParentMax=0;resizeLast=0;collapsible=1;marginBottom=0;whiteSpace=wrap;html=1;" parent="yFnnKSfxupEGuGG4y7b8-7" vertex="1">
          <mxGeometry x="22.5" y="280" width="337.5" height="86" as="geometry" />
        </mxCell>
        <mxCell id="yFnnKSfxupEGuGG4y7b8-131" value="- conn: final JdbcTemplate" style="text;strokeColor=none;fillColor=none;align=left;verticalAlign=top;spacingLeft=4;spacingRight=4;overflow=hidden;rotatable=0;points=[[0,0.5],[1,0.5]];portConstraint=eastwest;whiteSpace=wrap;html=1;" parent="yFnnKSfxupEGuGG4y7b8-42" vertex="1">
          <mxGeometry y="26" width="337.5" height="26" as="geometry" />
        </mxCell>
        <mxCell id="yFnnKSfxupEGuGG4y7b8-44" value="" style="line;strokeWidth=1;fillColor=none;align=left;verticalAlign=middle;spacingTop=-1;spacingLeft=3;spacingRight=3;rotatable=0;labelPosition=right;points=[];portConstraint=eastwest;strokeColor=inherit;" parent="yFnnKSfxupEGuGG4y7b8-42" vertex="1">
          <mxGeometry y="52" width="337.5" height="8" as="geometry" />
        </mxCell>
        <mxCell id="yFnnKSfxupEGuGG4y7b8-45" value="+ buscarHospitalPorId(int): Hospital" style="text;strokeColor=none;fillColor=none;align=left;verticalAlign=top;spacingLeft=4;spacingRight=4;overflow=hidden;rotatable=0;points=[[0,0.5],[1,0.5]];portConstraint=eastwest;whiteSpace=wrap;html=1;" parent="yFnnKSfxupEGuGG4y7b8-42" vertex="1">
          <mxGeometry y="60" width="337.5" height="26" as="geometry" />
        </mxCell>
        <mxCell id="yFnnKSfxupEGuGG4y7b8-34" value="ComputadorRepositorio" style="swimlane;fontStyle=1;align=center;verticalAlign=top;childLayout=stackLayout;horizontal=1;startSize=26;horizontalStack=0;resizeParent=1;resizeParentMax=0;resizeLast=0;collapsible=1;marginBottom=0;whiteSpace=wrap;html=1;" parent="yFnnKSfxupEGuGG4y7b8-7" vertex="1">
          <mxGeometry x="25" y="60" width="330" height="86" as="geometry" />
        </mxCell>
        <mxCell id="yFnnKSfxupEGuGG4y7b8-35" value="- conn: final JdbcTemplate" style="text;strokeColor=none;fillColor=none;align=left;verticalAlign=top;spacingLeft=4;spacingRight=4;overflow=hidden;rotatable=0;points=[[0,0.5],[1,0.5]];portConstraint=eastwest;whiteSpace=wrap;html=1;" parent="yFnnKSfxupEGuGG4y7b8-34" vertex="1">
          <mxGeometry y="26" width="330" height="26" as="geometry" />
        </mxCell>
        <mxCell id="yFnnKSfxupEGuGG4y7b8-36" value="" style="line;strokeWidth=1;fillColor=none;align=left;verticalAlign=middle;spacingTop=-1;spacingLeft=3;spacingRight=3;rotatable=0;labelPosition=right;points=[];portConstraint=eastwest;strokeColor=inherit;" parent="yFnnKSfxupEGuGG4y7b8-34" vertex="1">
          <mxGeometry y="52" width="330" height="8" as="geometry" />
        </mxCell>
        <mxCell id="yFnnKSfxupEGuGG4y7b8-37" value="+ autenticarComputador(String, String): List&amp;lt;Computador&amp;gt;" style="text;strokeColor=none;fillColor=none;align=left;verticalAlign=top;spacingLeft=4;spacingRight=4;overflow=hidden;rotatable=0;points=[[0,0.5],[1,0.5]];portConstraint=eastwest;whiteSpace=wrap;html=1;" parent="yFnnKSfxupEGuGG4y7b8-34" vertex="1">
          <mxGeometry y="60" width="330" height="26" as="geometry" />
        </mxCell>
        <mxCell id="xv3UmUeA4c30_hks40sB-28" value="Record" style="shape=folder;fontStyle=1;tabWidth=110;tabHeight=30;tabPosition=left;html=1;boundedLbl=1;labelInHeader=1;container=1;collapsible=0;whiteSpace=wrap;" vertex="1" parent="1">
          <mxGeometry x="-770" y="530" width="780" height="610" as="geometry" />
        </mxCell>
        <mxCell id="xv3UmUeA4c30_hks40sB-29" value="" style="html=1;strokeColor=none;resizeWidth=1;resizeHeight=1;fillColor=none;part=1;connectable=0;allowArrows=0;deletable=0;whiteSpace=wrap;" vertex="1" parent="xv3UmUeA4c30_hks40sB-28">
          <mxGeometry width="780" height="427.00000000000017" relative="1" as="geometry">
            <mxPoint y="30" as="offset" />
          </mxGeometry>
        </mxCell>
        <mxCell id="xv3UmUeA4c30_hks40sB-44" value="LeituraComputador" style="swimlane;fontStyle=1;align=center;verticalAlign=top;childLayout=stackLayout;horizontal=1;startSize=26;horizontalStack=0;resizeParent=1;resizeParentMax=0;resizeLast=0;collapsible=1;marginBottom=0;whiteSpace=wrap;html=1;" vertex="1" parent="xv3UmUeA4c30_hks40sB-28">
          <mxGeometry x="70" y="220.69548746849648" width="300.00000000000006" height="350.28954423592495" as="geometry" />
        </mxCell>
        <mxCell id="xv3UmUeA4c30_hks40sB-45" value="" style="line;strokeWidth=1;fillColor=none;align=left;verticalAlign=middle;spacingTop=-1;spacingLeft=3;spacingRight=3;rotatable=0;labelPosition=right;points=[];portConstraint=eastwest;strokeColor=inherit;" vertex="1" parent="xv3UmUeA4c30_hks40sB-44">
          <mxGeometry y="26" width="300.00000000000006" height="12.010723860589813" as="geometry" />
        </mxCell>
        <mxCell id="xv3UmUeA4c30_hks40sB-46" value="+ getCpusLogicas(): Integer" style="text;strokeColor=none;fillColor=none;align=left;verticalAlign=top;spacingLeft=4;spacingRight=4;overflow=hidden;rotatable=0;points=[[0,0.5],[1,0.5]];portConstraint=eastwest;whiteSpace=wrap;html=1;" vertex="1" parent="xv3UmUeA4c30_hks40sB-44">
          <mxGeometry y="38.01072386058981" width="300.00000000000006" height="39.03485254691689" as="geometry" />
        </mxCell>
        <mxCell id="xv3UmUeA4c30_hks40sB-47" value="+ getUsomemoria(): String" style="text;strokeColor=none;fillColor=none;align=left;verticalAlign=top;spacingLeft=4;spacingRight=4;overflow=hidden;rotatable=0;points=[[0,0.5],[1,0.5]];portConstraint=eastwest;whiteSpace=wrap;html=1;" vertex="1" parent="xv3UmUeA4c30_hks40sB-44">
          <mxGeometry y="77.0455764075067" width="300.00000000000006" height="39.03485254691689" as="geometry" />
        </mxCell>
        <mxCell id="xv3UmUeA4c30_hks40sB-48" value="+ getPorcentagemConsumoMemoria(): Double" style="text;strokeColor=none;fillColor=none;align=left;verticalAlign=top;spacingLeft=4;spacingRight=4;overflow=hidden;rotatable=0;points=[[0,0.5],[1,0.5]];portConstraint=eastwest;whiteSpace=wrap;html=1;" vertex="1" parent="xv3UmUeA4c30_hks40sB-44">
          <mxGeometry y="116.08042895442358" width="300.00000000000006" height="39.03485254691689" as="geometry" />
        </mxCell>
        <mxCell id="xv3UmUeA4c30_hks40sB-49" value="+ getNomeProcessador(): String" style="text;strokeColor=none;fillColor=none;align=left;verticalAlign=top;spacingLeft=4;spacingRight=4;overflow=hidden;rotatable=0;points=[[0,0.5],[1,0.5]];portConstraint=eastwest;whiteSpace=wrap;html=1;" vertex="1" parent="xv3UmUeA4c30_hks40sB-44">
          <mxGeometry y="155.11528150134046" width="300.00000000000006" height="39.03485254691689" as="geometry" />
        </mxCell>
        <mxCell id="xv3UmUeA4c30_hks40sB-50" value="+ getQuantidadeMaximaMemoria(): String" style="text;strokeColor=none;fillColor=none;align=left;verticalAlign=top;spacingLeft=4;spacingRight=4;overflow=hidden;rotatable=0;points=[[0,0.5],[1,0.5]];portConstraint=eastwest;whiteSpace=wrap;html=1;" vertex="1" parent="xv3UmUeA4c30_hks40sB-44">
          <mxGeometry y="194.15013404825734" width="300.00000000000006" height="39.03485254691689" as="geometry" />
        </mxCell>
        <mxCell id="xv3UmUeA4c30_hks40sB-51" value="+ getPorcentagemConsumoCpus(): Double" style="text;strokeColor=none;fillColor=none;align=left;verticalAlign=top;spacingLeft=4;spacingRight=4;overflow=hidden;rotatable=0;points=[[0,0.5],[1,0.5]];portConstraint=eastwest;whiteSpace=wrap;html=1;" vertex="1" parent="xv3UmUeA4c30_hks40sB-44">
          <mxGeometry y="233.18498659517422" width="300.00000000000006" height="39.03485254691689" as="geometry" />
        </mxCell>
        <mxCell id="xv3UmUeA4c30_hks40sB-52" value="+ getCpusFisicos(): Integer" style="text;strokeColor=none;fillColor=none;align=left;verticalAlign=top;spacingLeft=4;spacingRight=4;overflow=hidden;rotatable=0;points=[[0,0.5],[1,0.5]];portConstraint=eastwest;whiteSpace=wrap;html=1;" vertex="1" parent="xv3UmUeA4c30_hks40sB-44">
          <mxGeometry y="272.21983914209113" width="300.00000000000006" height="39.03485254691689" as="geometry" />
        </mxCell>
        <mxCell id="xv3UmUeA4c30_hks40sB-53" value="+ inserirLeitura(): Void" style="text;strokeColor=none;fillColor=none;align=left;verticalAlign=top;spacingLeft=4;spacingRight=4;overflow=hidden;rotatable=0;points=[[0,0.5],[1,0.5]];portConstraint=eastwest;whiteSpace=wrap;html=1;" vertex="1" parent="xv3UmUeA4c30_hks40sB-44">
          <mxGeometry y="311.25469168900804" width="300.00000000000006" height="39.03485254691689" as="geometry" />
        </mxCell>
        <mxCell id="xv3UmUeA4c30_hks40sB-54" style="edgeStyle=orthogonalEdgeStyle;rounded=0;orthogonalLoop=1;jettySize=auto;html=1;endArrow=block;endFill=0;" edge="1" source="xv3UmUeA4c30_hks40sB-44" target="xv3UmUeA4c30_hks40sB-60" parent="xv3UmUeA4c30_hks40sB-28">
          <mxGeometry relative="1" as="geometry" />
        </mxCell>
        <mxCell id="xv3UmUeA4c30_hks40sB-55" value="LeituraJanela" style="swimlane;fontStyle=1;align=center;verticalAlign=top;childLayout=stackLayout;horizontal=1;startSize=26;horizontalStack=0;resizeParent=1;resizeParentMax=0;resizeLast=0;collapsible=1;marginBottom=0;whiteSpace=wrap;html=1;" vertex="1" parent="xv3UmUeA4c30_hks40sB-28">
          <mxGeometry x="410" y="220.69548746849648" width="300.00000000000006" height="116.08042895442358" as="geometry" />
        </mxCell>
        <mxCell id="xv3UmUeA4c30_hks40sB-56" value="" style="line;strokeWidth=1;fillColor=none;align=left;verticalAlign=middle;spacingTop=-1;spacingLeft=3;spacingRight=3;rotatable=0;labelPosition=right;points=[];portConstraint=eastwest;strokeColor=inherit;" vertex="1" parent="xv3UmUeA4c30_hks40sB-55">
          <mxGeometry y="26" width="300.00000000000006" height="12.010723860589813" as="geometry" />
        </mxCell>
        <mxCell id="xv3UmUeA4c30_hks40sB-57" value="+ listaGuias(): List&amp;lt;Janela&amp;gt;" style="text;strokeColor=none;fillColor=none;align=left;verticalAlign=top;spacingLeft=4;spacingRight=4;overflow=hidden;rotatable=0;points=[[0,0.5],[1,0.5]];portConstraint=eastwest;whiteSpace=wrap;html=1;" vertex="1" parent="xv3UmUeA4c30_hks40sB-55">
          <mxGeometry y="38.01072386058981" width="300.00000000000006" height="39.03485254691689" as="geometry" />
        </mxCell>
        <mxCell id="xv3UmUeA4c30_hks40sB-58" value="+ inserirLeitura(): Void" style="text;strokeColor=none;fillColor=none;align=left;verticalAlign=top;spacingLeft=4;spacingRight=4;overflow=hidden;rotatable=0;points=[[0,0.5],[1,0.5]];portConstraint=eastwest;whiteSpace=wrap;html=1;" vertex="1" parent="xv3UmUeA4c30_hks40sB-55">
          <mxGeometry y="77.0455764075067" width="300.00000000000006" height="39.03485254691689" as="geometry" />
        </mxCell>
        <mxCell id="xv3UmUeA4c30_hks40sB-59" style="edgeStyle=orthogonalEdgeStyle;rounded=0;orthogonalLoop=1;jettySize=auto;html=1;endArrow=block;endFill=0;" edge="1" source="xv3UmUeA4c30_hks40sB-55" target="xv3UmUeA4c30_hks40sB-60" parent="xv3UmUeA4c30_hks40sB-28">
          <mxGeometry relative="1" as="geometry" />
        </mxCell>
        <mxCell id="xv3UmUeA4c30_hks40sB-60" value="&lt;i&gt;Leitura&lt;/i&gt;" style="swimlane;fontStyle=1;align=center;verticalAlign=top;childLayout=stackLayout;horizontal=1;startSize=26;horizontalStack=0;resizeParent=1;resizeParentMax=0;resizeLast=0;collapsible=1;marginBottom=0;whiteSpace=wrap;html=1;" vertex="1" parent="xv3UmUeA4c30_hks40sB-28">
          <mxGeometry x="240" y="55.00235294117647" width="300" height="116.08042895442358" as="geometry" />
        </mxCell>
        <mxCell id="xv3UmUeA4c30_hks40sB-61" value="- fkComputador: int" style="text;strokeColor=none;fillColor=none;align=left;verticalAlign=top;spacingLeft=4;spacingRight=4;overflow=hidden;rotatable=0;points=[[0,0.5],[1,0.5]];portConstraint=eastwest;whiteSpace=wrap;html=1;" vertex="1" parent="xv3UmUeA4c30_hks40sB-60">
          <mxGeometry y="26" width="300" height="39.03485254691689" as="geometry" />
        </mxCell>
        <mxCell id="xv3UmUeA4c30_hks40sB-62" value="" style="line;strokeWidth=1;fillColor=none;align=left;verticalAlign=middle;spacingTop=-1;spacingLeft=3;spacingRight=3;rotatable=0;labelPosition=right;points=[];portConstraint=eastwest;strokeColor=inherit;" vertex="1" parent="xv3UmUeA4c30_hks40sB-60">
          <mxGeometry y="65.03485254691688" width="300" height="12.010723860589813" as="geometry" />
        </mxCell>
        <mxCell id="xv3UmUeA4c30_hks40sB-63" value="+ inserirLeitura(): Void" style="text;strokeColor=none;fillColor=none;align=left;verticalAlign=top;spacingLeft=4;spacingRight=4;overflow=hidden;rotatable=0;points=[[0,0.5],[1,0.5]];portConstraint=eastwest;whiteSpace=wrap;html=1;" vertex="1" parent="xv3UmUeA4c30_hks40sB-60">
          <mxGeometry y="77.0455764075067" width="300" height="39.03485254691689" as="geometry" />
        </mxCell>
        <mxCell id="yFnnKSfxupEGuGG4y7b8-8" value="Persistencia" style="shape=folder;fontStyle=1;tabWidth=110;tabHeight=30;tabPosition=left;html=1;boundedLbl=1;labelInHeader=1;container=1;collapsible=0;recursiveResize=0;whiteSpace=wrap;" parent="1" vertex="1">
          <mxGeometry x="370" y="520" width="420" height="170" as="geometry" />
        </mxCell>
        <mxCell id="yFnnKSfxupEGuGG4y7b8-46" value="Conexao" style="swimlane;fontStyle=1;align=center;verticalAlign=top;childLayout=stackLayout;horizontal=1;startSize=26;horizontalStack=0;resizeParent=1;resizeParentMax=0;resizeLast=0;collapsible=1;marginBottom=0;whiteSpace=wrap;html=1;" parent="yFnnKSfxupEGuGG4y7b8-8" vertex="1">
          <mxGeometry x="85" y="55" width="300" height="86" as="geometry" />
        </mxCell>
        <mxCell id="yFnnKSfxupEGuGG4y7b8-47" value="- conn: JdbcTemplate" style="text;strokeColor=none;fillColor=none;align=left;verticalAlign=top;spacingLeft=4;spacingRight=4;overflow=hidden;rotatable=0;points=[[0,0.5],[1,0.5]];portConstraint=eastwest;whiteSpace=wrap;html=1;" parent="yFnnKSfxupEGuGG4y7b8-46" vertex="1">
          <mxGeometry y="26" width="300" height="26" as="geometry" />
        </mxCell>
        <mxCell id="yFnnKSfxupEGuGG4y7b8-48" value="" style="line;strokeWidth=1;fillColor=none;align=left;verticalAlign=middle;spacingTop=-1;spacingLeft=3;spacingRight=3;rotatable=0;labelPosition=right;points=[];portConstraint=eastwest;strokeColor=inherit;" parent="yFnnKSfxupEGuGG4y7b8-46" vertex="1">
          <mxGeometry y="52" width="300" height="8" as="geometry" />
        </mxCell>
        <mxCell id="yFnnKSfxupEGuGG4y7b8-49" value="+ getConn(): JdbcTemplate" style="text;strokeColor=none;fillColor=none;align=left;verticalAlign=top;spacingLeft=4;spacingRight=4;overflow=hidden;rotatable=0;points=[[0,0.5],[1,0.5]];portConstraint=eastwest;whiteSpace=wrap;html=1;" parent="yFnnKSfxupEGuGG4y7b8-46" vertex="1">
          <mxGeometry y="60" width="300" height="26" as="geometry" />
        </mxCell>
      </root>
    </mxGraphModel>
  </diagram>
</mxfile>
